<?xml version="1.0" encoding="UTF-8"?>
<svg width="24px" height="24px" viewBox="0 0 24 24" version="1.1" xmlns="http://www.w3.org/2000/svg" xmlns:xlink="http://www.w3.org/1999/xlink">
    <!-- Generator: Sketch 64 (93537) - https://sketch.com -->
    <title>electric_scooter</title>
    <desc>Created with Sketch.</desc>
    <g id="electric_scooter" stroke="none" stroke-width="1" fill="none" fill-rule="evenodd">
        <g id="photo_library_black_24dp">
            <polygon id="Path" points="0 0 24 0 24 24 0 24"></polygon>
        </g>
        <g id="electric_scooter_black_24dp">
            <rect id="Rectangle" x="0" y="0" width="24" height="24"></rect>
            <g id="Group" transform="translate(2.000000, 1.000000)" fill="#000000" fill-rule="nonzero">
                <path d="M5.82,15 L13,15 L13,14 C13,11.79 14.79,10 17,10 L17.74,10 L15.84,1.56 C15.63,0.65 14.82,0 13.89,0 L10,0 L10,2 L13.89,2 L15.29,8.25 C15.29,8.25 15.28,8.25 15.28,8.25 C13.12,8.9 11.47,10.73 11.09,13 L5.82,13 C5.34,11.66 3.96,10.76 2.4,11.06 C1.22,11.29 0.27,12.26 0.05,13.44 C-0.3,15.34 1.16,17 3,17 C4.3,17 5.4,16.16 5.82,15 Z M3,15 C2.45,15 2,14.55 2,14 C2,13.45 2.45,13 3,13 C3.55,13 4,13.45 4,14 C4,14.55 3.55,15 3,15 Z" id="Shape"></path>
                <path d="M17,11 C15.34,11 14,12.34 14,14 C14,15.66 15.34,17 17,17 C18.66,17 20,15.66 20,14 C20,12.34 18.66,11 17,11 Z M17,15 C16.45,15 16,14.55 16,14 C16,13.45 16.45,13 17,13 C17.55,13 18,13.45 18,14 C18,14.55 17.55,15 17,15 Z" id="Shape"></path>
                <polygon id="Path" points="9 19 5 19 11 22 11 20 15 20 9 17"></polygon>
            </g>
        </g>
    </g>
</svg>